<?xml version="1.0" standalone="no"?>
<!DOCTYPE svg PUBLIC "-//W3C//DTD SVG 20010904//EN"
 "http://www.w3.org/TR/2001/REC-SVG-20010904/DTD/svg10.dtd">
<svg version="1.0" xmlns="http://www.w3.org/2000/svg"
 width="800.000000pt" height="600.000000pt" viewBox="0 0 800.000000 600.000000"
 preserveAspectRatio="xMidYMid meet">

<g transform="translate(0.000000,600.000000) scale(0.100000,-0.100000)"
fill="#000000" stroke="none">
<path d="M3395 5915 c-5 -1 -30 -8 -55 -16 -47 -13 -132 -67 -163 -103 -33
-39 -68 -117 -73 -164 -6 -54 24 -123 66 -154 55 -40 104 -38 245 9 171 57
205 56 205 -8 0 -44 -17 -76 -67 -130 -61 -66 -101 -82 -175 -74 -69 7 -80
-11 -23 -38 73 -35 151 -15 241 61 112 93 134 250 42 298 -47 25 -154 23 -244
-5 -123 -38 -174 -29 -174 31 0 90 122 198 224 198 37 0 57 -6 82 -25 40 -31
60 -32 67 -4 12 44 -21 86 -86 114 -33 13 -85 18 -112 10z"/>
<path d="M3763 5723 c-22 -50 -29 -204 -13 -301 24 -153 58 -238 80 -202 9 14
6 91 -6 147 -3 18 4 26 35 42 59 31 102 71 122 116 34 73 19 191 -26 209 -28
10 -60 7 -81 -9 -27 -21 -42 -18 -46 8 -2 14 -11 23 -26 25 -18 3 -26 -4 -39
-35z m187 -67 c13 -41 0 -104 -31 -148 -18 -24 -77 -68 -93 -68 -3 0 -6 32 -6
70 0 102 42 179 97 180 16 0 24 -9 33 -34z"/>
<path d="M4253 5708 c-6 -7 -13 -22 -15 -33 -2 -15 -12 -20 -38 -21 -53 -1
-73 -11 -103 -54 -74 -105 -77 -242 -6 -282 17 -10 35 -18 39 -18 15 0 48 41
70 86 11 24 23 44 28 44 4 0 20 -13 35 -30 37 -38 59 -38 93 3 20 23 28 28 32
18 8 -23 51 -63 61 -56 5 3 11 0 13 -7 3 -7 11 -9 24 -3 10 4 24 9 31 11 15 3
62 37 63 45 0 3 10 17 21 30 21 23 22 23 33 5 26 -44 65 -80 88 -81 13 -1 29
-5 36 -9 6 -4 20 -3 29 3 16 9 14 11 -15 22 -38 13 -56 46 -36 66 7 7 17 13
23 13 5 0 13 9 16 20 3 11 10 20 16 20 15 0 40 72 35 102 -6 40 -32 77 -59 83
-57 15 -119 -49 -136 -139 -15 -80 -105 -170 -142 -143 -24 18 -30 85 -15 151
17 73 27 84 60 63 22 -15 25 -15 30 0 16 40 -64 70 -116 42 -25 -13 -68 -109
-68 -152 0 -37 -33 -97 -54 -97 -26 0 -31 22 -36 164 -5 136 -13 164 -37 134z
m543 -93 c18 -27 12 -76 -12 -96 -8 -6 -14 -18 -14 -26 0 -8 -4 -12 -9 -8 -5
3 -12 1 -16 -5 -15 -24 -25 -6 -25 43 0 52 28 117 50 117 5 0 17 -11 26 -25z
m-595 -5 c50 -27 -1 -230 -58 -230 -24 0 -14 191 11 219 22 24 21 24 47 11z"/>
<path d="M4806 5377 c3 -10 9 -15 12 -12 3 3 0 11 -7 18 -10 9 -11 8 -5 -6z"/>
<path d="M3413 4630 c-2 -3 -8 -5 -11 -5 -4 -1 -26 -11 -48 -23 -37 -19 -88
-80 -89 -107 -1 -5 -6 -20 -13 -32 -16 -29 -42 -223 -30 -223 5 0 7 -10 4 -22
-3 -13 -3 -17 0 -10 8 17 22 15 26 -5 3 -13 6 -10 9 9 5 21 3 25 -10 21 -9 -2
-7 1 4 8 11 7 24 17 28 23 5 6 6 1 3 -11 -3 -13 -9 -33 -12 -45 -4 -17 -3 -19
4 -9 9 12 11 12 14 0 3 -8 3 -1 0 15 -2 16 0 26 4 23 5 -3 9 7 10 21 3 77 8
112 16 112 4 0 8 7 8 15 0 23 45 119 63 134 9 7 14 18 10 24 -3 5 -1 7 4 4 6
-4 24 0 41 9 31 15 99 16 108 2 3 -5 12 -1 21 7 18 19 10 45 -17 52 -11 3 -20
8 -20 12 0 7 -119 8 -127 1z m-116 -332 c-3 -8 -6 -5 -6 6 -1 11 2 17 5 13 3
-3 4 -12 1 -19z"/>
<path d="M3230 4171 c0 -6 4 -13 10 -16 6 -3 7 1 4 9 -7 18 -14 21 -14 7z"/>
<path d="M600 2915 l0 -245 1625 0 1625 0 0 245 0 245 -1625 0 -1625 0 0 -245z
m332 128 c20 -18 25 -63 6 -63 -7 0 -25 6 -40 14 -29 15 -38 12 -38 -14 0 -12
9 -17 32 -17 57 0 88 -70 53 -120 -34 -48 -123 -37 -146 19 -25 60 -5 176 33
191 28 11 82 6 100 -10z m198 -77 c0 -53 4 -98 10 -101 6 -3 10 -15 10 -26 0
-16 -7 -19 -55 -19 -52 0 -55 1 -55 24 0 14 5 28 10 31 16 10 12 72 -5 79 -21
8 -19 40 5 61 11 10 20 24 20 32 0 8 12 13 30 13 l30 0 0 -94z m232 77 c20
-18 24 -63 7 -80 -8 -8 -7 -17 5 -34 40 -58 4 -119 -69 -119 -52 0 -85 25 -85
65 0 21 5 25 31 25 22 0 32 -5 36 -20 6 -24 23 -16 23 12 0 11 -8 22 -20 25
-13 3 -20 14 -20 28 0 14 7 25 20 28 20 5 28 27 10 27 -5 0 -10 -4 -10 -10 0
-5 -16 -10 -35 -10 -41 0 -45 15 -14 54 16 20 29 26 61 26 25 0 49 -7 60 -17z
m593 11 c27 -11 37 -52 22 -83 -11 -22 -11 -29 0 -39 20 -19 16 -79 -7 -102
-31 -31 -102 -28 -129 6 -32 41 -28 64 13 64 26 0 35 -5 41 -22 l8 -23 4 24
c3 16 -1 29 -13 38 -25 18 -26 44 -3 50 11 3 19 14 19 27 -1 20 -2 20 -14 4
-8 -11 -26 -18 -45 -18 -29 0 -32 2 -26 23 14 47 76 71 130 51z m224 -11 c39
-33 32 -91 -16 -138 -20 -19 -31 -35 -25 -35 6 0 14 5 17 10 3 6 17 10 31 10
21 0 24 -5 24 -35 l0 -35 -90 0 c-88 0 -90 1 -90 23 0 15 14 35 39 55 41 33
64 80 51 102 -6 9 -10 7 -15 -9 -5 -16 -14 -21 -42 -21 -28 0 -34 3 -29 16 3
9 6 20 6 25 0 5 9 18 20 29 25 25 90 27 119 3z m206 11 c27 -11 37 -52 22 -83
-11 -22 -11 -29 0 -39 20 -19 16 -79 -7 -102 -31 -31 -102 -28 -129 6 -33 42
-28 64 14 64 24 0 35 -5 35 -14 0 -8 5 -18 10 -21 6 -4 10 5 10 20 0 18 -6 29
-18 32 -22 5 -18 53 4 53 8 0 14 10 14 23 -1 20 -2 21 -14 5 -8 -11 -26 -18
-45 -18 -29 0 -32 2 -25 23 12 39 35 57 75 57 20 0 45 -3 54 -6z m615 -14 c36
-36 19 -106 -36 -149 -19 -15 -22 -21 -10 -21 9 0 16 5 16 10 0 10 42 14 52 5
2 -3 3 -18 0 -35 l-4 -30 -84 0 c-79 0 -84 1 -84 21 0 12 20 44 45 70 41 44
59 89 35 89 -5 0 -10 -7 -10 -15 0 -10 -11 -15 -35 -15 -42 0 -47 22 -14 64
27 34 98 37 129 6z m207 -2 c29 -31 38 -87 23 -148 -14 -57 -39 -80 -87 -80
-36 0 -73 32 -73 62 0 23 58 26 66 3 8 -20 24 -9 24 17 0 14 -5 18 -15 14 -26
-9 -62 11 -72 41 -12 34 0 83 24 100 28 21 87 16 110 -9z m243 -2 c0 -13 -11
-48 -24 -77 -13 -30 -27 -73 -31 -96 -7 -42 -7 -43 -47 -43 l-40 0 7 38 c3 20
19 63 35 95 20 39 24 57 15 57 -7 0 -15 -7 -19 -15 -3 -8 -17 -15 -31 -15 -23
0 -25 4 -25 40 l0 40 80 0 c78 0 80 -1 80 -24z m172 13 c25 -13 48 -68 48
-114 0 -104 -79 -159 -146 -102 -47 41 -48 155 -2 205 23 24 66 29 100 11z
m-1962 -134 c0 -24 -3 -25 -57 -25 -55 0 -58 1 -58 25 0 24 3 25 58 25 54 0
57 -1 57 -25z m1030 0 c0 -24 -3 -25 -59 -25 -57 0 -58 1 -53 25 4 23 9 25 58
25 51 0 54 -1 54 -25z"/>
<path d="M864 2906 c-8 -21 3 -49 16 -41 5 3 10 15 10 25 0 25 -18 36 -26 16z"/>
<path d="M3140 2979 c0 -17 4 -28 10 -24 6 3 10 17 10 31 0 13 -4 24 -10 24
-5 0 -10 -14 -10 -31z"/>
<path d="M3570 2940 c0 -45 4 -69 10 -65 6 3 10 33 10 65 0 32 -4 62 -10 65
-6 4 -10 -20 -10 -65z"/>
<path d="M3909 2111 l-29 -29 0 -192 0 -192 29 -29 c27 -27 35 -29 100 -29
l71 0 0 90 0 90 -30 0 c-28 0 -30 3 -30 35 0 32 3 35 29 35 27 0 29 3 33 51 7
67 30 90 97 97 l51 5 0 -37 c0 -31 -3 -36 -23 -36 -31 0 -47 -18 -47 -52 0
-25 3 -28 35 -28 36 0 40 -6 29 -47 -4 -14 -15 -23 -33 -25 -26 -3 -26 -4 -29
-90 l-3 -88 76 0 c71 0 79 2 106 29 l29 29 0 192 0 192 -29 29 -29 29 -187 0
-187 0 -29 -29z"/>
<path d="M4863 2000 c0 -36 2 -49 4 -30 8 60 43 64 43 4 0 -19 5 -34 11 -34 6
0 9 17 7 43 -3 37 -6 42 -28 42 -16 0 -27 7 -32 20 -3 11 -6 -9 -5 -45z"/>
<path d="M5471 1994 c-13 -36 -21 -68 -17 -71 3 -3 9 3 12 13 4 10 15 41 26
67 20 54 21 57 10 57 -4 0 -18 -30 -31 -66z"/>
<path d="M5581 2039 c-5 -13 -16 -41 -25 -63 -18 -43 -21 -66 -7 -50 13 14 53
126 47 132 -3 2 -10 -6 -15 -19z"/>
<path d="M6182 2043 c-5 -10 -6 -38 -2 -63 l7 -45 2 38 c1 26 6 37 16 37 21 0
19 20 -2 20 -16 1 -16 2 1 15 17 13 17 15 3 15 -9 0 -20 -8 -25 -17z"/>
<path d="M6591 2003 l-1 -63 30 0 c23 0 33 6 39 23 12 32 -2 62 -30 62 -15 0
-26 7 -31 20 -3 11 -6 -8 -7 -42z m54 -32 c-9 -29 -39 -23 -43 8 -2 13 2 27
10 32 19 12 41 -14 33 -40z"/>
<path d="M6940 2000 c0 -33 4 -60 10 -60 6 0 10 7 10 15 0 8 4 15 9 15 5 0 14
-7 21 -15 7 -8 17 -15 23 -15 6 0 1 10 -11 23 l-22 24 20 18 c11 10 18 21 15
23 -3 3 -16 -5 -30 -18 l-25 -23 0 36 c0 20 -4 37 -10 37 -6 0 -10 -27 -10
-60z"/>
<path d="M4977 2037 c-2 -7 -2 -30 2 -52 5 -33 10 -40 31 -42 15 -1 18 0 8 3
-11 4 -18 15 -18 31 0 14 8 32 18 39 16 13 16 13 0 14 -10 0 -18 5 -18 10 0
14 -17 12 -23 -3z"/>
<path d="M5057 2037 c-2 -7 -2 -30 2 -52 5 -33 10 -40 31 -42 15 -1 18 0 8 3
-11 4 -18 15 -18 31 0 14 8 32 18 39 16 13 16 13 0 14 -10 0 -18 5 -18 10 0
14 -17 12 -23 -3z"/>
<path d="M5140 1969 c0 -33 4 -59 10 -59 6 0 10 7 10 15 0 8 8 15 19 15 26 0
43 24 39 57 -3 25 -7 28 -40 30 l-38 1 0 -59z m59 0 c-15 -30 -39 -23 -39 10
0 34 19 46 37 23 9 -10 9 -20 2 -33z"/>
<path d="M5267 2023 c-14 -14 -6 -34 18 -43 14 -5 25 -15 25 -21 0 -7 -10 -9
-25 -7 -14 3 -25 1 -25 -4 0 -5 15 -8 33 -6 24 2 32 8 32 23 0 13 -8 21 -22
23 -13 2 -23 10 -23 19 0 10 6 14 20 10 11 -3 20 -1 20 4 0 10 -43 12 -53 2z"/>
<path d="M5380 2020 c0 -5 5 -10 10 -10 6 0 10 5 10 10 0 6 -4 10 -10 10 -5 0
-10 -4 -10 -10z"/>
<path d="M5645 1994 c11 -63 25 -71 42 -26 l10 27 12 -29 c15 -37 30 -24 36
30 l5 39 -14 -30 -14 -30 -13 30 -12 30 -10 -27 c-13 -32 -27 -37 -27 -9 0 11
-5 23 -11 27 -9 5 -10 -4 -4 -32z"/>
<path d="M5790 2023 c0 -20 22 -83 29 -83 4 0 12 12 18 28 l10 27 11 -27 c16
-40 27 -35 39 17 11 50 3 61 -14 18 l-10 -28 -8 28 c-9 34 -23 35 -31 2 -7
-28 -24 -24 -24 6 0 10 -4 19 -10 19 -5 0 -10 -3 -10 -7z"/>
<path d="M5940 2023 c0 -20 22 -83 29 -83 4 0 12 12 18 28 l10 27 11 -27 c16
-40 27 -35 39 17 11 49 0 62 -15 18 l-10 -28 -7 28 c-9 34 -23 35 -31 2 -7
-28 -24 -24 -24 6 0 10 -4 19 -10 19 -5 0 -10 -3 -10 -7z"/>
<path d="M6255 2020 c-5 -9 -1 -10 13 -6 11 4 23 2 26 -3 4 -5 -4 -13 -16 -17
-50 -15 -43 -54 9 -54 34 0 34 0 31 43 -3 37 -6 42 -30 45 -14 2 -29 -2 -33
-8z m37 -62 c-11 -11 -32 -3 -32 12 0 12 34 18 39 7 2 -5 -1 -13 -7 -19z"/>
<path d="M6376 2014 c-19 -18 -21 -45 -4 -62 15 -15 55 -16 63 -2 4 7 -2 9
-19 4 -19 -4 -28 -2 -32 11 -9 23 9 51 30 47 9 -2 16 2 16 8 0 16 -37 12 -54
-6z"/>
<path d="M6476 2015 c-19 -19 -20 -29 -6 -56 11 -19 70 -28 70 -11 0 4 -12 8
-27 7 -14 0 -28 6 -30 13 -3 8 7 12 31 12 32 0 35 2 27 23 -10 27 -43 34 -65
12z m52 -13 c2 -7 -6 -12 -17 -12 -21 0 -27 11 -14 24 9 9 26 2 31 -12z"/>
<path d="M6710 2016 c-28 -35 11 -93 48 -70 35 22 22 84 -18 84 -10 0 -23 -7
-30 -14z m45 -32 c0 -19 -5 -29 -15 -29 -16 0 -25 28 -16 51 10 25 31 10 31
-22z"/>
<path d="M6831 2016 c-7 -8 -11 -27 -9 -43 6 -50 78 -40 78 11 0 41 -45 62
-69 32z m47 -25 c5 -34 -16 -51 -33 -27 -10 14 -11 24 -4 38 13 24 33 18 37
-11z"/>
<path d="M7142 2018 c-17 -17 -15 -65 4 -72 24 -9 54 -7 54 4 0 5 -7 7 -16 3
-24 -9 -46 24 -33 49 7 13 16 17 31 12 14 -4 18 -2 14 5 -9 15 -39 14 -54 -1z"/>
<path d="M7240 2016 c-28 -35 11 -93 48 -70 35 22 22 84 -18 84 -10 0 -23 -7
-30 -14z m45 -32 c0 -19 -5 -29 -15 -29 -16 0 -25 28 -16 51 10 25 31 10 31
-22z"/>
<path d="M7350 1984 c0 -24 5 -44 10 -44 6 0 10 15 10 34 0 20 6 36 14 39 20
8 26 -2 26 -40 0 -18 5 -33 10 -33 6 0 10 15 10 34 0 60 35 56 43 -4 3 -27 4
-25 3 10 l-1 45 -62 1 -63 1 0 -43z"/>
<path d="M5380 1950 c0 -5 5 -10 10 -10 6 0 10 5 10 10 0 6 -4 10 -10 10 -5 0
-10 -4 -10 -10z"/>
<path d="M6100 1950 c0 -5 5 -10 10 -10 6 0 10 5 10 10 0 6 -4 10 -10 10 -5 0
-10 -4 -10 -10z"/>
<path d="M7060 1950 c0 -5 5 -10 10 -10 6 0 10 5 10 10 0 6 -4 10 -10 10 -5 0
-10 -4 -10 -10z"/>
<path d="M4477 1793 c-15 -37 -24 -69 -22 -71 8 -8 12 -1 39 71 33 87 18 88
-17 0z"/>
<path d="M4885 1843 c-12 -22 -8 -103 6 -103 5 0 9 14 9 31 0 19 7 37 18 45
16 13 16 13 -3 14 -20 1 -20 1 -1 15 20 15 20 15 0 15 -10 0 -24 -8 -29 -17z"/>
<path d="M4960 1850 c0 -5 5 -10 10 -10 6 0 10 5 10 10 0 6 -4 10 -10 10 -5 0
-10 -4 -10 -10z"/>
<path d="M5020 1800 c0 -33 4 -60 10 -60 6 0 10 27 10 60 0 33 -4 60 -10 60
-6 0 -10 -27 -10 -60z"/>
<path d="M5400 1800 c0 -33 4 -60 10 -60 6 0 10 15 10 34 0 20 6 36 14 39 20
8 26 -2 26 -40 0 -20 4 -32 10 -28 10 6 8 55 -5 74 -4 7 -16 11 -26 8 -14 -4
-19 0 -19 14 0 10 -4 19 -10 19 -6 0 -10 -27 -10 -60z"/>
<path d="M5644 1848 c-5 -7 -2 -9 8 -6 21 9 40 -6 32 -25 -3 -9 -10 -17 -15
-17 -5 0 -9 -8 -9 -17 0 -14 6 -12 25 11 29 33 30 37 13 54 -15 15 -45 15 -54
0z"/>
<path d="M5750 1850 c0 -5 5 -10 10 -10 6 0 10 5 10 10 0 6 -4 10 -10 10 -5 0
-10 -4 -10 -10z"/>
<path d="M5870 1845 c0 -8 -8 -15 -19 -15 -26 0 -43 -24 -39 -57 3 -24 8 -28
41 -31 l37 -3 0 60 c0 34 -4 61 -10 61 -5 0 -10 -7 -10 -15z m-5 -61 c0 -19
-5 -29 -15 -29 -16 0 -25 28 -16 51 10 25 31 10 31 -22z"/>
<path d="M6106 1844 c-17 -12 -18 -14 -3 -14 24 0 24 -65 0 -79 -14 -8 -10
-10 22 -10 22 1 32 3 23 6 -13 3 -18 17 -20 58 -3 51 -4 53 -22 39z"/>
<path d="M6210 1841 c-25 -48 -2 -105 41 -99 21 3 24 9 27 46 2 24 -2 50 -9
58 -16 20 -46 17 -59 -5z m56 -55 c-8 -36 -11 -40 -31 -33 -19 8 -21 83 -2 90
20 8 39 -25 33 -57z"/>
<path d="M6336 1844 c-35 -35 -10 -109 35 -102 21 3 24 9 27 46 5 64 -27 92
-62 56z m50 -58 c-8 -36 -11 -40 -31 -33 -18 8 -21 67 -3 85 19 19 41 -15 34
-52z"/>
<path d="M6460 1845 c-13 -15 -16 -77 -5 -94 11 -18 54 -12 65 8 31 59 -21
133 -60 86z m50 -40 c0 -34 -10 -55 -26 -55 -19 0 -29 47 -15 77 9 21 14 23
26 13 8 -7 15 -23 15 -35z"/>
<path d="M6581 1846 c-7 -8 -11 -34 -9 -58 3 -36 7 -44 26 -46 32 -5 52 15 52
50 0 58 -40 89 -69 54z m49 -46 c0 -41 -15 -59 -32 -42 -12 12 -14 65 -3 81
13 22 35 -2 35 -39z"/>
<path d="M6700 1841 c-14 -26 -13 -74 2 -89 17 -17 55 -15 62 4 10 26 7 79 -6
92 -18 18 -46 14 -58 -7z m48 -47 c-2 -27 -8 -39 -18 -39 -20 0 -27 74 -8 86
20 13 30 -5 26 -47z"/>
<path d="M6822 1848 c-26 -26 0 -77 33 -64 9 3 15 0 15 -8 0 -8 -12 -19 -27
-24 -25 -9 -25 -11 -6 -11 31 -1 53 25 53 63 0 35 -15 56 -40 56 -9 0 -21 -5
-28 -12z m46 -26 c3 -17 -2 -22 -17 -22 -14 0 -21 6 -21 18 0 38 33 41 38 4z"/>
<path d="M6950 1840 c-35 -35 -19 -100 25 -100 31 0 52 35 34 56 -6 8 -22 14
-35 14 -17 0 -22 4 -18 15 4 8 15 15 25 15 10 0 19 5 19 10 0 17 -29 11 -50
-10z m45 -65 c0 -30 -39 -27 -43 3 -3 20 0 23 20 20 15 -2 23 -10 23 -23z"/>
<path d="M7065 1850 c-5 -8 1 -11 16 -8 16 2 25 -3 27 -14 2 -12 -3 -18 -15
-19 -15 0 -14 -2 5 -11 31 -15 24 -43 -11 -43 -15 1 -27 -3 -27 -7 0 -4 13 -8
30 -8 28 0 57 29 43 44 -3 3 -6 20 -7 38 -1 28 -5 33 -28 36 -14 2 -29 -2 -33
-8z"/>
<path d="M7191 1851 c-8 -5 -12 -18 -9 -29 3 -10 1 -27 -4 -36 -21 -37 44 -64
73 -30 10 12 10 20 1 34 -7 12 -8 21 -2 25 15 9 -7 45 -28 45 -9 0 -23 -4 -31
-9z m44 -21 c0 -8 -8 -16 -17 -18 -13 -2 -18 3 -18 18 0 15 5 20 18 18 9 -2
17 -10 17 -18z m-5 -45 c13 -16 6 -35 -15 -35 -18 0 -28 17 -21 35 7 19 20 19
36 0z"/>
<path d="M7321 1825 c-39 -45 -39 -55 -1 -55 21 0 30 -5 30 -16 0 -8 5 -12 10
-9 6 4 8 10 5 15 -3 4 0 10 7 12 7 3 8 9 3 18 -5 8 -10 25 -11 38 -4 36 -9 36
-43 -3z m29 -15 c0 -14 -7 -20 -22 -20 -20 0 -21 1 -3 20 10 11 20 20 22 20 1
0 3 -9 3 -20z"/>
<path d="M7430 1850 c-13 -9 -12 -11 5 -9 55 4 60 -13 15 -56 -16 -16 -30 -32
-30 -37 0 -4 19 -7 43 -7 29 2 34 3 15 6 -35 5 -35 10 -1 45 22 23 25 32 17
46 -13 20 -43 26 -64 12z"/>
<path d="M7545 1850 c-4 -6 7 -10 24 -10 37 0 38 -3 6 -57 -13 -24 -20 -43
-15 -43 10 0 60 88 60 106 0 16 -65 20 -75 4z"/>
<path d="M7665 1850 c-4 -6 7 -10 24 -10 37 0 37 0 11 -50 -22 -44 -25 -54
-10 -45 15 10 60 102 53 109 -10 10 -71 7 -78 -4z"/>
<path d="M7813 1828 c-41 -42 -42 -58 -4 -58 20 0 31 -6 34 -17 4 -17 5 -17 6
0 0 9 6 17 12 17 8 0 8 4 1 13 -6 6 -12 27 -14 45 l-3 33 -32 -33z m27 -23 c0
-9 -9 -15 -21 -15 -18 0 -19 2 -9 15 7 8 16 15 21 15 5 0 9 -7 9 -15z"/>
<path d="M4560 1765 c1 -46 3 -56 11 -42 5 9 19 17 30 17 27 0 45 41 30 69 -9
15 -20 21 -41 19 -30 -2 -30 -3 -30 -63z m58 16 c-2 -18 -9 -26 -23 -26 -19 0
-22 16 -10 52 8 24 36 2 33 -26z"/>
<path d="M4680 1781 c0 -45 11 -50 16 -8 1 12 3 25 3 30 1 4 8 7 16 7 8 0 15
4 15 9 0 5 -11 8 -25 7 -23 -1 -25 -5 -25 -45z"/>
<path d="M4770 1816 c-28 -35 11 -93 48 -70 35 22 22 84 -18 84 -10 0 -23 -7
-30 -14z m45 -32 c0 -19 -5 -29 -15 -29 -16 0 -25 28 -16 51 10 25 31 10 31
-22z"/>
<path d="M4960 1785 c0 -25 5 -45 10 -45 6 0 10 20 10 45 0 25 -4 45 -10 45
-5 0 -10 -20 -10 -45z"/>
<path d="M5090 1809 c-19 -34 2 -69 40 -69 16 0 30 4 30 8 0 4 -12 8 -27 7
-14 0 -28 6 -30 13 -3 8 6 12 27 12 27 0 31 3 28 23 -4 32 -52 36 -68 6z m54
-4 c4 -11 -1 -15 -19 -15 -24 0 -32 10 -18 23 11 12 31 8 37 -8z"/>
<path d="M5280 1769 c0 -33 4 -59 10 -59 6 0 10 7 10 15 0 8 8 15 18 15 24 0
42 19 42 46 0 28 -18 42 -52 42 -27 0 -28 -2 -28 -59z m58 10 c-1 -13 -11 -25
-20 -27 -14 -3 -18 3 -18 26 0 30 17 46 33 32 5 -4 7 -18 5 -31z"/>
<path d="M5520 1769 c0 -33 4 -59 10 -59 6 0 10 7 10 15 0 8 8 15 19 15 26 0
43 24 39 57 -3 25 -7 28 -40 30 l-38 1 0 -59z m59 0 c-15 -30 -39 -23 -39 10
0 34 19 46 37 23 9 -10 9 -20 2 -33z"/>
<path d="M5750 1785 c0 -25 5 -45 10 -45 6 0 10 20 10 45 0 25 -4 45 -10 45
-5 0 -10 -20 -10 -45z"/>
<path d="M5963 1803 c15 -2 37 -2 50 0 12 2 0 4 -28 4 -27 0 -38 -2 -22 -4z"/>
<path d="M5963 1773 c15 -2 37 -2 50 0 12 2 0 4 -28 4 -27 0 -38 -2 -22 -4z"/>
<path d="M5210 1750 c0 -5 5 -10 10 -10 6 0 10 5 10 10 0 6 -4 10 -10 10 -5 0
-10 -4 -10 -10z"/>
<path d="M5660 1750 c0 -5 5 -10 11 -10 5 0 7 5 4 10 -3 6 -8 10 -11 10 -2 0
-4 -4 -4 -10z"/>
<path d="M3914 1516 l-34 -34 0 -192 0 -192 34 -34 34 -34 182 0 c268 0 260
-8 260 260 0 268 8 260 -260 260 l-182 0 -34 -34z m356 -49 c43 -21 60 -71 60
-177 0 -106 -17 -156 -60 -177 -15 -8 -67 -13 -133 -13 -172 0 -187 16 -187
193 1 172 15 186 185 186 68 1 119 -4 135 -12z"/>
<path d="M4029 1439 c-38 -14 -49 -49 -49 -150 0 -86 9 -125 34 -141 6 -4 64
-8 128 -8 149 0 148 -1 148 151 0 147 -4 152 -136 156 -55 1 -111 -2 -125 -8z
m228 -35 c8 -21 -13 -42 -28 -27 -13 13 -5 43 11 43 6 0 13 -7 17 -16z m-60
-36 c64 -52 37 -159 -42 -174 -110 -20 -158 128 -60 185 24 13 80 7 102 -11z"/>
<path d="M4095 1336 c-11 -8 -18 -26 -18 -46 0 -38 23 -60 64 -60 31 0 59 31
59 66 0 45 -64 70 -105 40z"/>
<path d="M5014 1280 c0 -52 1 -74 3 -47 2 26 2 68 0 95 -2 26 -3 4 -3 -48z"/>
<path d="M5673 1280 c1 -52 2 -73 4 -45 5 57 16 75 48 75 32 0 43 -18 48 -75
l3 -50 2 51 c2 63 -20 90 -67 81 -28 -6 -30 -4 -34 26 -2 18 -4 -11 -4 -63z"/>
<path d="M4655 1348 c-31 -18 -44 -40 -44 -73 0 -66 76 -108 125 -69 18 15 18
15 -3 5 -12 -6 -31 -11 -43 -11 -29 0 -70 44 -70 75 0 33 42 75 75 75 36 0 77
-43 73 -78 -4 -39 -32 -35 -36 5 -3 25 -9 34 -28 39 -30 8 -54 -11 -54 -41 0
-33 19 -43 75 -42 44 2 50 5 53 26 6 40 -7 70 -38 86 -34 18 -58 19 -85 3z
m60 -73 c0 -23 -5 -31 -22 -33 -17 -3 -24 3 -29 22 -8 32 3 48 29 44 17 -2 22
-10 22 -33z"/>
<path d="M6031 1334 c-29 -37 -27 -89 4 -119 40 -41 88 -27 104 30 23 87 -58
153 -108 89z m81 -1 c25 -23 25 -94 -2 -118 -26 -24 -68 -13 -81 23 -28 73 31
142 83 95z"/>
<path d="M6204 1338 c-17 -19 -17 -21 -1 -15 15 6 17 -1 17 -63 0 -40 4 -70
10 -70 6 0 10 35 10 85 0 47 -4 85 -8 85 -5 0 -17 -10 -28 -22z"/>
<path d="M4851 1294 c-12 -15 -21 -32 -21 -39 0 -7 9 -24 21 -39 21 -26 52
-33 79 -16 9 6 17 5 22 -3 4 -7 8 20 8 58 0 39 -4 65 -8 58 -5 -8 -13 -9 -22
-3 -27 17 -58 10 -79 -16z m86 -10 c15 -24 15 -29 2 -53 -21 -37 -69 -36 -87
2 -29 61 48 107 85 51z"/>
<path d="M5073 1255 c0 -38 2 -53 4 -32 2 20 2 52 0 70 -2 17 -4 1 -4 -38z"/>
<path d="M5272 1250 l2 -65 3 57 c4 52 7 58 29 64 34 9 45 -4 54 -67 l8 -54 1
57 c1 53 3 58 27 64 35 9 47 -7 55 -69 l6 -52 2 45 c0 27 -5 55 -15 68 -16 24
-53 29 -72 10 -8 -8 -15 -8 -25 1 -8 6 -29 10 -46 9 l-31 -2 2 -66z"/>
<path d="M5512 1274 c-2 -62 16 -83 71 -81 l37 1 0 63 c0 75 -18 85 -22 12 -2
-36 -8 -55 -20 -63 -31 -19 -52 5 -59 65 l-6 54 -1 -51z"/>
<path d="M5851 1294 c-12 -15 -21 -32 -21 -39 0 -7 9 -24 21 -39 21 -26 52
-33 79 -16 9 6 17 5 22 -3 4 -7 8 20 8 58 0 39 -4 65 -8 58 -5 -8 -13 -9 -22
-3 -27 17 -58 10 -79 -16z m86 -10 c15 -24 15 -29 2 -53 -11 -19 -23 -26 -44
-26 -21 0 -33 7 -44 26 -13 24 -13 29 2 53 11 16 27 26 42 26 15 0 31 -10 42
-26z"/>
<path d="M5153 1193 c15 -2 37 -2 50 0 12 2 0 4 -28 4 -27 0 -38 -2 -22 -4z"/>
</g>
</svg>
